<?xml version="1.0" encoding="iso-8859-1"?>
<!-- Generator: Adobe Illustrator 19.0.0, SVG Export Plug-In . SVG Version: 6.00 Build 0)  -->
<svg version="1.1" id="Capa_1" xmlns="http://www.w3.org/2000/svg" xmlns:xlink="http://www.w3.org/1999/xlink" x="0px" y="0px"
	 viewBox="0 0 504.58 504.58" style="enable-background:new 0 0 504.58 504.58;" xml:space="preserve">
<circle style="fill:#FCBD5E;" cx="252.518" cy="252.29" r="252.062"/>
<g>
	<rect x="198.955" y="431.884" style="fill:#183651;" width="15.754" height="15.754"/>
	<rect x="246.217" y="431.884" style="fill:#183651;" width="15.754" height="15.754"/>
	<rect x="293.478" y="431.884" style="fill:#183651;" width="15.754" height="15.754"/>
	
		<rect x="117.141" y="94.785" transform="matrix(-0.8604 0.5097 -0.5097 -0.8604 284.9042 127.2699)" style="fill:#183651;" width="15.754" height="15.754"/>
	
		<rect x="157.879" y="70.256" transform="matrix(-0.8602 0.5099 -0.5099 -0.8602 348.1846 60.8234)" style="fill:#183651;" width="15.753" height="15.753"/>
	
		<rect x="198.37" y="46.825" transform="matrix(-0.8604 0.5096 -0.5096 -0.8604 411.5795 -3.3363)" style="fill:#183651;" width="15.754" height="15.754"/>
</g>
<path style="fill:#FFFFFF;" d="M492.764,342.087L380.912,182.973V44.339h1.575c10.24,0,18.117-7.877,18.117-18.117
	s-7.877-18.117-18.117-18.117h-85.858c-10.24,0-18.117,7.877-18.117,18.117s7.877,18.117,18.117,18.117h1.575v138.634
	L187.14,342.087c-10.24,14.178,0,34.658,18.117,34.658h270.178C492.764,376.745,503.004,357.053,492.764,342.087z"/>
<path style="fill:#183651;" d="M474.647,384.622H204.469c-11.028,0-21.268-6.302-25.994-15.754
	c-5.514-10.24-4.726-21.268,2.363-30.72L291.115,180.61V51.428c-11.028-3.151-19.692-13.391-19.692-25.206
	c0-14.178,11.815-25.994,25.994-25.994h85.071c14.178,0,25.994,11.815,25.994,25.994c0,11.815-8.665,22.055-19.692,25.206V180.61
	l110.277,157.538c6.302,9.452,7.089,21.268,2.363,30.72C495.915,378.321,485.675,384.622,474.647,384.622z M296.629,15.982
	c-5.514,0-10.24,4.726-10.24,10.24s4.726,10.24,10.24,10.24h1.575c4.726,0,7.877,3.151,7.877,7.877v138.634
	c0,1.575-0.788,3.151-1.575,4.726L193.441,346.813c-3.151,4.726-3.151,9.452-0.788,14.178s7.089,7.877,12.603,7.877h270.178
	c5.514,0,10.24-3.151,12.603-7.877s2.363-10.24-0.788-14.178l-112.64-159.114c-0.788-1.575-1.575-3.151-1.575-4.726V44.339
	c0-4.726,3.151-7.877,7.877-7.877h1.575c5.514,0,10.24-4.726,10.24-10.24s-4.726-10.24-10.24-10.24H296.629z"/>
<g>
	<polygon style="fill:#F05F50;" points="296.629,238.111 221.011,346.025 458.106,346.025 382.487,238.111 	"/>
	<circle style="fill:#F05F50;" cx="348.617" cy="142.013" r="11.028"/>
	<circle style="fill:#F05F50;" cx="330.5" cy="208.967" r="14.178"/>
	<circle style="fill:#F05F50;" cx="330.5" cy="78.21" r="11.028"/>
</g>
<path style="fill:#E1E6E8;" d="M105.22,315.305L13.06,452.364c-8.665,13.391-5.514,30.72,7.877,39.385
	c13.391,8.665,30.72,5.514,39.385-7.877l92.16-136.271L105.22,315.305z"/>
<path style="fill:#183651;" d="M36.691,504.351L36.691,504.351c-7.089,0-14.178-2.363-20.48-6.302
	c-16.542-11.028-21.268-33.871-10.24-50.412l92.948-136.271c2.363-3.938,7.089-4.726,11.028-2.363l47.262,31.508
	c1.575,0.788,3.151,3.151,3.151,4.726c0.788,2.363,0,3.938-1.575,6.302l-92.16,137.058C60.321,498.05,49.294,504.351,36.691,504.351
	z M107.583,326.333L19.361,456.302c-6.302,9.452-3.938,22.055,5.514,28.357c9.452,6.302,22.055,3.938,28.357-5.514l87.434-129.969
	L107.583,326.333z"/>
<ellipse style="fill:#FFFFFF;" cx="157.845" cy="288.826" rx="118.153" ry="118.153"/>
<path style="fill:#183651;" d="M87.891,394.075C30.389,355.478,14.635,276.708,54.02,218.419
	c38.597-57.502,117.366-73.255,175.655-34.658c57.502,38.597,73.255,117.366,33.871,175.655
	C224.161,416.918,145.392,432.671,87.891,394.075z M66.623,227.084c-33.871,50.412-20.48,119.729,29.932,153.6
	c51.2,33.871,119.729,20.48,153.6-29.932s20.48-119.729-29.932-153.6C169.023,162.493,100.494,176.671,66.623,227.084z"/>
<path style="fill:#2AA0DA;" d="M106.007,367.293c43.323,29.145,101.612,17.329,130.757-25.994s17.329-101.612-25.206-130.757
	c-43.323-29.145-101.612-17.329-130.757,25.994C50.869,279.071,62.684,338.148,106.007,367.293L106.007,367.293z"/>
<path style="fill:#FFFFFF;" d="M112.309,250.715c3.938,3.151,9.452,1.575,12.603-2.363c11.815-17.329,35.446-22.055,52.775-10.24
	c3.938,3.151,9.452,1.575,12.603-2.363c3.151-3.938,1.575-9.452-2.363-12.603c-25.994-17.329-60.652-10.24-77.982,14.966
	C106.795,242.05,108.371,247.564,112.309,250.715L112.309,250.715z"/>
<g>
</g>
<g>
</g>
<g>
</g>
<g>
</g>
<g>
</g>
<g>
</g>
<g>
</g>
<g>
</g>
<g>
</g>
<g>
</g>
<g>
</g>
<g>
</g>
<g>
</g>
<g>
</g>
<g>
</g>
</svg>
